<svg width="32" height="32" viewBox="0 0 32 32" fill="none" xmlns="http://www.w3.org/2000/svg">
<g clip-path="url(#clip0_1409_1023)">
<path d="M30.1058 5.85117C29.2534 3.19586 27.4364 1.24711 25.1206 0.504482C20.8511 -0.864643 17.3403 0.895732 16 1.73848C14.6595 0.89567 11.1486 -0.864643 6.87938 0.504482C4.56288 1.24729 2.74569 3.19679 1.89363 5.85311C0.773194 9.34611 1.49676 13.303 3.82938 16.4378C4.84351 17.8009 5.52919 19.3035 5.86732 20.904C6.01751 21.6152 6.14807 22.3975 6.25532 23.2295C6.57738 25.7281 7.05169 27.7335 7.66519 29.1899C8.40007 30.9346 9.34813 31.8768 10.483 31.9903C10.5476 31.9967 10.6114 31.9999 10.6749 31.9999C11.7919 31.9999 12.7254 30.9974 13.4517 29.0159C13.9886 27.5511 14.4119 25.5883 14.6436 23.4889C14.7731 22.315 15.076 21.3645 15.5195 20.7402C15.6783 20.5167 15.9085 20.4925 16.0001 20.4925C16.0916 20.4925 16.3218 20.5167 16.4806 20.7402C16.9241 21.3645 17.2271 22.315 17.3566 23.489C17.5883 25.5883 18.0115 27.5512 18.5484 29.016C19.2747 30.9975 20.2081 32 21.3253 32C21.3886 32 21.4526 31.9967 21.5171 31.9904C22.652 31.8769 23.6001 30.9347 24.3349 29.19C24.9484 27.7335 25.4228 25.7282 25.7448 23.2296C25.8521 22.3975 25.9826 21.6152 26.1328 20.9045C26.4706 19.3052 27.1573 17.801 28.1738 16.4339C30.5043 13.2991 31.2266 9.34292 30.1058 5.85117ZM26.6728 15.318C25.4943 16.9033 24.6969 18.6528 24.3028 20.5179C24.1424 21.2772 24.0034 22.1091 23.8898 22.9905C23.2343 28.0764 22.0127 30.0395 21.3428 30.1279C21.2021 30.0781 20.7208 29.6155 20.2034 28.0849C19.7649 26.7879 19.4142 25.0829 19.2156 23.2838C19.0489 21.773 18.6418 20.5528 18.0054 19.657C17.5451 19.009 16.7954 18.6222 16 18.6222C15.2046 18.6222 14.4549 19.009 13.9946 19.6571C13.3582 20.5529 12.9511 21.7731 12.7843 23.2839C12.5858 25.0829 12.235 26.788 11.7966 28.085C11.2792 29.6155 10.7979 30.0782 10.6572 30.128C9.98732 30.0396 8.76569 28.0764 8.11013 22.9906C7.99651 22.1094 7.85757 21.2773 7.69707 20.5176C7.30276 18.651 6.50626 16.9028 5.32976 15.3215C3.35682 12.6699 2.73813 9.34392 3.67457 6.42448C4.33988 4.3503 5.71613 2.84173 7.45044 2.28561C9.28132 1.69842 11.1693 1.73604 13.0618 2.39729C14.5073 2.90242 15.4143 3.60111 15.4211 3.60636L15.9986 4.05792L16.5766 3.60811C16.5856 3.60111 17.4927 2.90242 18.9382 2.39729C20.8307 1.73598 22.7186 1.69842 24.5495 2.28561H24.5496C26.2833 2.84154 27.6594 4.34954 28.3249 6.42286C29.2616 9.34117 28.6441 12.6665 26.6728 15.318Z" fill="#227DDE"/>
</g>
<defs>
<clipPath id="clip0_1409_1023">
<rect width="32" height="32" fill="white"/>
</clipPath>
</defs>
</svg>
