<svg width="32" height="32" viewBox="0 0 32 32" fill="none" xmlns="http://www.w3.org/2000/svg">
<path d="M12.1917 27.7096V23.6204C12.1917 22.5842 13.0343 21.7424 14.078 21.7358H17.9102C18.9585 21.7358 19.8084 22.5796 19.8084 23.6204V27.6977C19.8084 28.5965 20.5387 29.3269 21.444 29.3334H24.0585C25.2796 29.3365 26.4517 28.8571 27.3163 28.001C28.1808 27.1449 28.6667 25.9824 28.6667 24.7701V13.1545C28.6667 12.1753 28.2295 11.2464 27.4729 10.6181L18.5907 3.56577C17.0381 2.33224 14.8205 2.37209 13.3139 3.66059L4.62272 10.6181C3.83036 11.2278 3.35678 12.1595 3.33337 13.1545V24.7583C3.33337 27.285 5.39655 29.3334 7.94161 29.3334H10.4964C10.9323 29.3365 11.3514 29.1668 11.6607 28.862C11.97 28.5571 12.1439 28.1423 12.1439 27.7096H12.1917Z" fill="#227DDE"/>
</svg>
