<svg width="16" height="16" viewBox="0 0 16 16" fill="none" xmlns="http://www.w3.org/2000/svg">
<path fill-rule="evenodd" clip-rule="evenodd" d="M2.33337 6.87842C2.33337 3.81185 4.89596 1.33325 7.99567 1.33325C11.1041 1.33325 13.6667 3.81185 13.6667 6.87842C13.6667 8.42371 13.1047 9.85834 12.1797 11.0743C11.1592 12.4156 9.90148 13.5842 8.48574 14.5015C8.16172 14.7135 7.86929 14.7295 7.51368 14.5015C6.08987 13.5842 4.8321 12.4156 3.82037 11.0743C2.8947 9.85834 2.33337 8.42371 2.33337 6.87842ZM6.12953 7.05107C6.12953 8.07837 6.96781 8.88635 7.99567 8.88635C9.0242 8.88635 9.87055 8.07837 9.87055 7.05107C9.87055 6.03176 9.0242 5.18446 7.99567 5.18446C6.96781 5.18446 6.12953 6.03176 6.12953 7.05107Z" fill="#ADADAD"/>
</svg>
