<svg width="32" height="32" viewBox="0 0 32 32" fill="none" xmlns="http://www.w3.org/2000/svg">
<g clip-path="url(#clip0_1409_985)">
<path d="M30.8856 13.7163C30.1774 13.1633 29.2713 12.971 28.3997 13.1891L27.3173 13.4597C27.1294 12.6142 26.8493 11.8005 26.4844 11.0296L28.4263 9.90843C28.8746 9.64956 29.0282 9.07625 28.7694 8.62781C28.5105 8.17943 27.9373 8.02562 27.4888 8.28468L25.5457 9.40643C25.0605 8.70656 24.4957 8.0575 23.8571 7.47112L24.6343 6.66737C25.2588 6.02137 25.5454 5.14056 25.4207 4.25081C25.2959 3.36093 24.7781 2.593 24 2.14381C23.2219 1.6945 22.2979 1.63006 21.4649 1.96693C20.6319 2.30381 20.0125 2.99237 19.7654 3.85625L19.4608 4.92093C18.6398 4.66356 17.7961 4.50012 16.9374 4.43125V2.19287C16.9374 1.67512 16.5177 1.25537 15.9999 1.25537C15.4822 1.25537 15.0624 1.67512 15.0624 2.19287V4.43125C14.2037 4.50012 13.3602 4.66362 12.5391 4.92093L12.2345 3.85625C11.9874 2.99243 11.3679 2.30375 10.535 1.96693C9.70212 1.63006 8.77806 1.69462 7.99988 2.14381C7.22175 2.59306 6.70394 3.361 6.57919 4.25075C6.45444 5.1405 6.74106 6.02131 7.36562 6.66731L8.14281 7.47106C7.50419 8.0575 6.93937 8.7065 6.45412 9.40637L4.51119 8.28462C4.06275 8.02562 3.48937 8.17937 3.23056 8.62775C2.97169 9.07618 3.12531 9.64956 3.57369 9.90837L5.51556 11.0295C5.15056 11.8004 4.8705 12.6142 4.68262 13.4596L3.60019 13.1891C2.72837 12.9709 1.82244 13.1633 1.11425 13.7162C0.406187 14.2693 0 15.1017 0 16.0002C0 16.8987 0.406187 17.7311 1.11437 18.2841C1.82256 18.8371 2.72875 19.0292 3.60031 18.8112L4.68269 18.5407C4.87056 19.3861 5.15069 20.1999 5.51569 20.9708L3.57375 22.0919C3.12538 22.3508 2.97175 22.9241 3.23062 23.3726C3.40425 23.6733 3.71938 23.8415 4.04338 23.8415C4.20237 23.8415 4.36363 23.801 4.51125 23.7157L6.45419 22.5939C6.93937 23.2938 7.50419 23.9429 8.14281 24.5292L7.36556 25.333C6.741 25.979 6.45437 26.8598 6.57919 27.7496C6.704 28.6393 7.22181 29.4072 7.99994 29.8565C8.44862 30.1156 8.94581 30.2467 9.44613 30.2467C9.81338 30.2466 10.1824 30.1759 10.5351 30.0334C11.368 29.6965 11.9874 29.0079 12.2346 28.1441L12.5392 27.0794C13.3602 27.3367 14.2038 27.5002 15.0625 27.5691V29.8074C15.0625 30.3252 15.4823 30.7449 16 30.7449C16.5177 30.7449 16.9375 30.3252 16.9375 29.8074V27.5691C17.7962 27.5002 18.6397 27.3367 19.4608 27.0794L19.7654 28.1441C20.0126 29.0079 20.6319 29.6966 21.4649 30.0334C22.2979 30.3702 23.2219 30.3057 24.0001 29.8565C24.7782 29.4072 25.296 28.6393 25.4207 27.7496C25.5455 26.8598 25.2589 25.979 24.6343 25.333L23.8571 24.5292C24.4957 23.9428 25.0605 23.2937 25.5457 22.5939L27.4886 23.7157C27.6362 23.8009 27.7974 23.8415 27.9565 23.8415C28.2805 23.8415 28.5957 23.6733 28.7693 23.3726C29.0281 22.9241 28.8745 22.3507 28.4261 22.0919L26.4842 20.9708C26.8492 20.1999 27.1293 19.3861 27.3172 18.5407L28.3996 18.8112C29.2713 19.0292 30.1773 18.8369 30.8856 18.2841C31.5938 17.7311 32 16.8987 32 16.0002C32 15.1017 31.5938 14.2693 30.8856 13.7163ZM29.7318 16.8062C29.4819 17.0013 29.1621 17.0692 28.8544 16.9923L26.7964 16.4778C26.5369 16.4129 26.2621 16.462 26.0411 16.6126C25.8201 16.7632 25.6739 17.0011 25.6394 17.2663C25.3048 19.8373 23.9818 22.1276 21.914 23.7153C21.7021 23.8781 21.5697 24.1234 21.55 24.3899C21.5304 24.6564 21.6253 24.9185 21.811 25.1106L23.2864 26.6365C23.5068 26.8644 23.608 27.1753 23.5639 27.4893C23.5199 27.8033 23.3371 28.0743 23.0625 28.2329C22.7879 28.3914 22.4618 28.4141 22.1679 28.2952C21.8739 28.1764 21.6553 27.9334 21.5681 27.6286L20.9872 25.5979C20.9137 25.3408 20.7339 25.1274 20.4932 25.0112C20.2523 24.8951 19.9734 24.8873 19.7265 24.9898C18.54 25.4823 17.2863 25.732 16.0001 25.732C14.7139 25.732 13.4602 25.4823 12.2736 24.9898C12.0268 24.8872 11.7477 24.895 11.5069 25.0112C11.2661 25.1274 11.0864 25.3407 11.0129 25.5979L10.432 27.6286C10.3448 27.9334 10.1262 28.1764 9.83225 28.2952C9.53831 28.4142 9.21219 28.3915 8.93756 28.2329C8.66294 28.0743 8.48025 27.8033 8.43619 27.4893C8.39213 27.1754 8.49331 26.8645 8.71369 26.6365L10.1892 25.1106C10.3749 24.9185 10.4698 24.6563 10.4502 24.3899C10.4305 24.1234 10.2981 23.8781 10.0862 23.7153C8.01844 22.1276 6.69544 19.8373 6.36081 17.2663C6.32631 17.0011 6.18013 16.7632 5.95913 16.6126C5.802 16.5055 5.61775 16.4498 5.43113 16.4498C5.35519 16.4498 5.27881 16.459 5.20375 16.4778L3.14569 16.9923C2.838 17.0691 2.51825 17.0014 2.26837 16.8062C2.01831 16.611 1.875 16.3172 1.875 16.0002C1.875 15.6831 2.01831 15.3894 2.26825 15.1942C2.51819 14.9991 2.83787 14.9312 3.14556 15.0081L5.20363 15.5226C5.46313 15.5876 5.738 15.5384 5.95894 15.3878C6.17994 15.2372 6.32612 14.9993 6.36062 14.7341C6.69525 12.163 8.01831 9.87275 10.0861 8.28506C10.2979 8.12231 10.4304 7.877 10.4501 7.6105C10.4698 7.34406 10.3748 7.08187 10.1891 6.88981L8.71369 5.36393C8.49325 5.136 8.39206 4.82512 8.43612 4.51106C8.48019 4.19712 8.66288 3.92612 8.9375 3.76756C9.21212 3.609 9.53813 3.58625 9.83212 3.70518C10.1261 3.824 10.3447 4.06706 10.4319 4.37187L11.0127 6.40256C11.0862 6.65962 11.2661 6.873 11.5068 6.98918C11.7477 7.10531 12.0266 7.11312 12.2735 7.01062C13.46 6.51812 14.7137 6.26843 15.9999 6.26843C17.2861 6.26843 18.5398 6.51812 19.7264 7.01062C19.9732 7.11312 20.2522 7.10537 20.4931 6.98918C20.7339 6.87306 20.9136 6.65968 20.9871 6.40256L21.568 4.37187C21.6553 4.06706 21.8738 3.824 22.1677 3.70518C22.4618 3.58637 22.7878 3.60906 23.0624 3.76756C23.3371 3.92612 23.5198 4.19712 23.5638 4.51106C23.6079 4.82506 23.5067 5.13593 23.2863 5.36393L21.8109 6.88987C21.6251 7.08193 21.5302 7.34418 21.5499 7.61056C21.5695 7.87706 21.702 8.12237 21.9139 8.28512C23.9816 9.87275 25.3047 12.1631 25.6393 14.7341C25.6738 14.9994 25.82 15.2372 26.041 15.3879C26.2621 15.5385 26.5369 15.5876 26.7963 15.5226L28.8544 15.0081C29.1619 14.9313 29.4818 14.999 29.7317 15.1942C29.9817 15.3894 30.125 15.6831 30.125 16.0002C30.125 16.3172 29.9817 16.611 29.7318 16.8062Z" fill="#227DDE"/>
<mask id="path-2-inside-1_1409_985" fill="white">
<path d="M20.375 15.6875C18.8242 15.6875 17.5625 16.9492 17.5625 18.5C17.5625 20.0508 18.8242 21.3125 20.375 21.3125C21.9258 21.3125 23.1875 20.0508 23.1875 18.5C23.1875 16.9492 21.9258 15.6875 20.375 15.6875ZM20.375 19.4375C19.8581 19.4375 19.4375 19.0169 19.4375 18.5C19.4375 17.9831 19.8581 17.5625 20.375 17.5625C20.8919 17.5625 21.3125 17.9831 21.3125 18.5C21.3125 19.0169 20.8919 19.4375 20.375 19.4375Z"/>
</mask>
<path d="M20.375 15.6875C18.8242 15.6875 17.5625 16.9492 17.5625 18.5C17.5625 20.0508 18.8242 21.3125 20.375 21.3125C21.9258 21.3125 23.1875 20.0508 23.1875 18.5C23.1875 16.9492 21.9258 15.6875 20.375 15.6875ZM20.375 19.4375C19.8581 19.4375 19.4375 19.0169 19.4375 18.5C19.4375 17.9831 19.8581 17.5625 20.375 17.5625C20.8919 17.5625 21.3125 17.9831 21.3125 18.5C21.3125 19.0169 20.8919 19.4375 20.375 19.4375Z" fill="#227DDE"/>
<path d="M20.375 13.6875C17.7196 13.6875 15.5625 15.8446 15.5625 18.5H19.5625C19.5625 18.0538 19.9288 17.6875 20.375 17.6875V13.6875ZM15.5625 18.5C15.5625 21.1554 17.7196 23.3125 20.375 23.3125V19.3125C19.9288 19.3125 19.5625 18.9462 19.5625 18.5H15.5625ZM20.375 23.3125C23.0304 23.3125 25.1875 21.1554 25.1875 18.5H21.1875C21.1875 18.9462 20.8212 19.3125 20.375 19.3125V23.3125ZM25.1875 18.5C25.1875 15.8446 23.0304 13.6875 20.375 13.6875V17.6875C20.8212 17.6875 21.1875 18.0538 21.1875 18.5H25.1875ZM20.375 17.4375C20.9626 17.4375 21.4375 17.9124 21.4375 18.5H17.4375C17.4375 20.1215 18.7535 21.4375 20.375 21.4375V17.4375ZM21.4375 18.5C21.4375 19.0876 20.9626 19.5625 20.375 19.5625V15.5625C18.7535 15.5625 17.4375 16.8785 17.4375 18.5H21.4375ZM20.375 19.5625C19.7874 19.5625 19.3125 19.0876 19.3125 18.5H23.3125C23.3125 16.8785 21.9965 15.5625 20.375 15.5625V19.5625ZM19.3125 18.5C19.3125 17.9124 19.7874 17.4375 20.375 17.4375V21.4375C21.9965 21.4375 23.3125 20.1215 23.3125 18.5H19.3125Z" fill="#227DDE" mask="url(#path-2-inside-1_1409_985)"/>
<mask id="path-4-inside-2_1409_985" fill="white">
<path d="M12.25 10.6875C10.3546 10.6875 8.8125 12.2296 8.8125 14.125C8.8125 16.0204 10.3546 17.5625 12.25 17.5625C14.1454 17.5625 15.6875 16.0204 15.6875 14.125C15.6875 12.2296 14.1454 10.6875 12.25 10.6875ZM12.25 15.6875C11.3884 15.6875 10.6875 14.9866 10.6875 14.125C10.6875 13.2634 11.3884 12.5625 12.25 12.5625C13.1116 12.5625 13.8125 13.2634 13.8125 14.125C13.8125 14.9866 13.1116 15.6875 12.25 15.6875Z"/>
</mask>
<path d="M12.25 10.6875C10.3546 10.6875 8.8125 12.2296 8.8125 14.125C8.8125 16.0204 10.3546 17.5625 12.25 17.5625C14.1454 17.5625 15.6875 16.0204 15.6875 14.125C15.6875 12.2296 14.1454 10.6875 12.25 10.6875ZM12.25 15.6875C11.3884 15.6875 10.6875 14.9866 10.6875 14.125C10.6875 13.2634 11.3884 12.5625 12.25 12.5625C13.1116 12.5625 13.8125 13.2634 13.8125 14.125C13.8125 14.9866 13.1116 15.6875 12.25 15.6875Z" fill="#227DDE"/>
<path d="M12.25 8.6875C9.24999 8.6875 6.8125 11.125 6.8125 14.125H10.8125C10.8125 13.3341 11.4591 12.6875 12.25 12.6875V8.6875ZM6.8125 14.125C6.8125 17.125 9.24999 19.5625 12.25 19.5625V15.5625C11.4591 15.5625 10.8125 14.9159 10.8125 14.125H6.8125ZM12.25 19.5625C15.25 19.5625 17.6875 17.125 17.6875 14.125H13.6875C13.6875 14.9159 13.0409 15.5625 12.25 15.5625V19.5625ZM17.6875 14.125C17.6875 11.125 15.25 8.6875 12.25 8.6875V12.6875C13.0409 12.6875 13.6875 13.3341 13.6875 14.125H17.6875ZM12.25 13.6875C12.493 13.6875 12.6875 13.882 12.6875 14.125H8.6875C8.6875 16.0911 10.2839 17.6875 12.25 17.6875V13.6875ZM12.6875 14.125C12.6875 14.368 12.493 14.5625 12.25 14.5625V10.5625C10.2839 10.5625 8.6875 12.1589 8.6875 14.125H12.6875ZM12.25 14.5625C12.007 14.5625 11.8125 14.368 11.8125 14.125H15.8125C15.8125 12.1589 14.2161 10.5625 12.25 10.5625V14.5625ZM11.8125 14.125C11.8125 13.882 12.007 13.6875 12.25 13.6875V17.6875C14.2161 17.6875 15.8125 16.0911 15.8125 14.125H11.8125Z" fill="#227DDE" mask="url(#path-4-inside-2_1409_985)"/>
</g>
<defs>
<clipPath id="clip0_1409_985">
<rect width="32" height="32" fill="white"/>
</clipPath>
</defs>
</svg>
