<svg width="15" height="16" viewBox="0 0 15 16" fill="none" xmlns="http://www.w3.org/2000/svg">
<path fill-rule="evenodd" clip-rule="evenodd" d="M5.5625 1.27917H9.41875C11.1125 1.27917 12.4812 1.96355 12.5 3.70327V13.4124C12.5 13.5212 12.475 13.6299 12.425 13.7258C12.3438 13.8793 12.2063 13.9945 12.0375 14.0456C11.875 14.0968 11.6938 14.0712 11.5437 13.9817L7.49375 11.9094L3.4375 13.9817C3.34438 14.0322 3.2375 14.0648 3.13125 14.0648C2.78125 14.0648 2.5 13.7706 2.5 13.4124V3.70327C2.5 1.96355 3.875 1.27917 5.5625 1.27917ZM5.1375 6.15295H9.84375C10.1125 6.15295 10.3312 5.92844 10.3312 5.64766C10.3312 5.36623 10.1125 5.14237 9.84375 5.14237H5.1375C4.86875 5.14237 4.65 5.36623 4.65 5.64766C4.65 5.92844 4.86875 6.15295 5.1375 6.15295Z" fill="white"/>
</svg>
