<svg width="32" height="32" viewBox="0 0 32 32" fill="none" xmlns="http://www.w3.org/2000/svg">
<g clip-path="url(#clip0_1409_1031)">
<path d="M14.0945 17.9806C13.9302 16.5034 13.7606 14.9771 13.7606 13.5212C13.7606 10.8654 13.7606 3.81201 8.90976 3.81201C3.47017 3.81201 0.000562566 16.7946 0.000562566 23.5748C-0.00687489 24.5753 0.0368125 29.6544 1.7018 31.3332C2.12843 31.763 2.64998 31.9913 3.21104 31.9913C4.38854 31.9913 5.01253 31.5113 5.67272 31.0047C6.39265 30.45 7.38033 29.6927 9.91669 28.9611C15.1472 27.4541 14.5883 22.4208 14.0945 17.9806ZM9.32788 26.9112C6.40221 27.7549 5.18203 28.6924 4.37466 29.3132C3.81367 29.7452 3.65473 29.8539 3.24298 29.8593C2.64892 29.47 2.11349 26.4516 2.1348 23.5835C2.1348 15.8358 5.93397 5.94525 8.91082 5.94525C10.7646 5.94525 11.6285 8.35255 11.6285 13.5223C11.6285 15.0956 11.8045 16.6826 11.9751 18.2164C12.5212 23.1248 12.6674 25.9491 9.32788 26.9112Z" fill="#227DDE"/>
<path d="M30.9992 23.5834H30.9993C30.9993 20.3173 30.1567 15.4939 28.649 11.5051C27.8951 9.51049 26.9981 7.7878 26.0048 6.58243C25.0027 5.3665 24.0208 4.81201 23.089 4.81201C22.1518 4.81201 21.5002 5.14002 21.0035 5.65194C20.4792 6.19236 20.0858 6.98458 19.807 7.94841C19.2463 9.88666 19.2403 12.1739 19.2403 13.5201C19.2403 15.0338 19.0653 16.6073 18.9031 18.0668L18.9004 18.0911L18.9004 18.0911C18.6484 20.3564 18.4161 22.5441 18.8239 24.3495C19.022 25.2264 19.3637 25.9681 19.8992 26.5655C20.4313 27.1591 21.2051 27.6665 22.3592 27.9992L22.3595 27.9993C25.0427 28.7736 26.1412 29.5998 26.9356 30.21C27.5759 30.7008 27.9692 30.9913 28.791 30.9913C29.0607 30.9913 29.3319 30.8881 29.5881 30.6302L30.9992 23.5834ZM30.9992 23.5834L30.9993 23.592M30.9992 23.5834L30.9993 23.592M30.9993 23.592C31.0034 24.0679 30.9942 25.5316 30.7853 27.0668M30.9993 23.592L30.7853 27.0668M29.0536 30.862L28.7472 30.8581C28.4258 30.854 28.124 30.8029 27.7952 30.6358C27.5407 30.5064 27.2874 30.3123 27.0386 30.1216L27.018 30.1058L27.0172 30.1052L26.9954 30.0885C26.2538 29.5189 25.1385 28.6624 22.3961 27.871L29.0536 30.862ZM29.0536 30.862L29.3096 30.6936M29.0536 30.862L29.3096 30.6936M29.3096 30.6936C29.5782 30.5169 29.7468 30.2669 29.8482 30.089C29.9601 29.8926 30.053 29.6704 30.1315 29.4455C30.2891 28.9939 30.4224 28.4337 30.5302 27.8244C30.7465 26.602 30.879 25.0738 30.867 23.5878C30.8664 19.5708 29.8871 15.0397 28.5283 11.5023C27.8491 9.73414 27.0566 8.16535 26.2089 7.01843C25.7853 6.44524 25.3242 5.94507 24.8278 5.58043C24.3331 5.21706 23.7442 4.94625 23.0899 4.94625C22.6218 4.94625 21.9896 5.03115 21.3794 5.50629C20.7912 5.96431 20.343 6.69218 20.0137 7.72426L20.0136 7.72468C19.429 9.55963 19.3734 11.9745 19.3734 13.5212C19.3734 15.0308 19.2046 16.563 19.0329 18.1057L19.0329 18.1057M29.3096 30.6936L19.0329 18.1057M19.0329 18.1057C18.7652 20.5118 18.5617 22.623 18.916 24.2552M19.0329 18.1057L18.916 24.2552M30.7853 27.0668C30.6808 27.8349 30.5298 28.5937 30.3171 29.2436M30.7853 27.0668L30.3171 29.2436M30.3171 29.2436C30.0989 29.9104 29.8446 30.3714 29.5882 30.6301L30.3171 29.2436ZM18.916 24.2552C19.1007 25.106 19.4454 25.8811 20.0451 26.5203M18.916 24.2552L20.0451 26.5203M20.0451 26.5203C20.6437 27.1583 21.433 27.5933 22.3957 27.8709L20.0451 26.5203Z" fill="#227DDE" stroke="#227DDE" stroke-width="2"/>
<path d="M16.0637 11.8011L16.064 11.802C16.429 12.7622 16.8789 13.3845 17.4002 13.7507C17.9527 14.1389 18.4545 14.1447 18.6552 14.1447C18.6922 14.1447 18.7219 14.1742 18.7219 14.2113C18.7219 14.2484 18.6922 14.2779 18.6552 14.2779C18.1044 14.2779 17.4073 14.1088 16.7697 13.3438L16.0015 12.4222L15.2334 13.3438C14.5957 14.1089 13.8986 14.2779 13.3489 14.2779C13.3126 14.2779 13.2824 14.2478 13.2824 14.2113C13.2824 14.1748 13.3125 14.1447 13.3489 14.1447C13.5497 14.1447 14.0512 14.1387 14.6035 13.7504C15.1245 13.3842 15.5746 12.7618 15.94 11.8012L15.9405 11.7999C15.9491 11.7773 15.9729 11.7588 16.0026 11.7588C16.0294 11.7588 16.0541 11.7757 16.0637 11.8011Z" fill="#227DDE" stroke="#227DDE" stroke-width="2"/>
<path d="M15.9338 1.07535C15.9338 1.03896 15.9639 1.00879 16.0005 1.00879C16.0369 1.00879 16.067 1.03888 16.067 1.07535V12.0239C16.067 12.0605 16.0369 12.0905 16.0005 12.0905C15.964 12.0905 15.9338 12.0604 15.9338 12.0239V1.07535Z" fill="#227DDE" stroke="#227DDE" stroke-width="2"/>
</g>
<defs>
<clipPath id="clip0_1409_1031">
<rect width="32" height="32" fill="white"/>
</clipPath>
</defs>
</svg>
