<svg width="32" height="32" viewBox="0 0 32 32" fill="none" xmlns="http://www.w3.org/2000/svg">
<path d="M11.96 29.3334H19.96C26.6267 29.3334 29.2933 26.6667 29.2933 20.0001V12.0001C29.2933 5.33341 26.6267 2.66675 19.96 2.66675H11.96C5.29333 2.66675 2.62666 5.33341 2.62666 12.0001V20.0001C2.62666 26.6667 5.29333 29.3334 11.96 29.3334Z" stroke="#227DDE" stroke-width="2" stroke-linecap="round" stroke-linejoin="round"/>
<path d="M2.62666 16.9334L10.6267 16.9067C11.6267 16.9067 12.7467 17.6667 13.12 18.6001L14.64 22.4401C14.9867 23.3067 15.5333 23.3067 15.88 22.4401L18.9333 14.6934C19.2267 13.9467 19.7733 13.9201 20.1467 14.6267L21.5333 17.2534C21.9467 18.0401 23.0133 18.6801 23.8933 18.6801H29.3067" stroke="#227DDE" stroke-width="2" stroke-linecap="round" stroke-linejoin="round"/>
</svg>
