<svg width="16" height="16" viewBox="0 0 16 16" fill="none" xmlns="http://www.w3.org/2000/svg">
<path fill-rule="evenodd" clip-rule="evenodd" d="M2.33334 6.87842C2.33334 3.81185 4.89593 1.33325 7.99564 1.33325C11.1041 1.33325 13.6667 3.81185 13.6667 6.87842C13.6667 8.42371 13.1047 9.85834 12.1797 11.0743C11.1592 12.4156 9.90145 13.5842 8.48571 14.5015C8.16169 14.7135 7.86926 14.7295 7.51365 14.5015C6.08984 13.5842 4.83207 12.4156 3.82034 11.0743C2.89467 9.85834 2.33334 8.42371 2.33334 6.87842ZM6.1295 7.05107C6.1295 8.07837 6.96778 8.88635 7.99564 8.88635C9.02417 8.88635 9.87052 8.07837 9.87052 7.05107C9.87052 6.03176 9.02417 5.18446 7.99564 5.18446C6.96778 5.18446 6.1295 6.03176 6.1295 7.05107Z" fill="#3B4453"/>
</svg>
