<svg width="32" height="32" viewBox="0 0 32 32" fill="none" xmlns="http://www.w3.org/2000/svg">
<g clip-path="url(#clip0_0_10)">
<path d="M8 5.33325H6.66667C5.95942 5.33325 5.28115 5.6142 4.78105 6.1143C4.28095 6.6144 4 7.29267 4 7.99992V12.6666C4 14.6115 4.77262 16.4768 6.14788 17.852C7.52315 19.2273 9.38841 19.9999 11.3333 19.9999C13.2783 19.9999 15.1435 19.2273 16.5188 17.852C17.894 16.4768 18.6667 14.6115 18.6667 12.6666V7.99992C18.6667 7.29267 18.3857 6.6144 17.8856 6.1143C17.3855 5.6142 16.7072 5.33325 16 5.33325H14.6667" stroke="#227DDE" stroke-width="2" stroke-linecap="round" stroke-linejoin="round"/>
<path d="M10.6667 20C10.6667 21.0506 10.8736 22.0909 11.2756 23.0615C11.6777 24.0321 12.2669 24.914 13.0098 25.6569C13.7527 26.3997 14.6346 26.989 15.6052 27.391C16.5758 27.7931 17.6161 28 18.6667 28C19.7172 28 20.7575 27.7931 21.7281 27.391C22.6987 26.989 23.5807 26.3997 24.3235 25.6569C25.0664 24.914 25.6557 24.0321 26.0577 23.0615C26.4597 22.0909 26.6667 21.0506 26.6667 20V16" stroke="#227DDE" stroke-width="2" stroke-linecap="round" stroke-linejoin="round"/>
<path d="M14.6667 4V6.66667" stroke="#227DDE" stroke-width="2" stroke-linecap="round" stroke-linejoin="round"/>
<path d="M8 4V6.66667" stroke="#227DDE" stroke-width="2" stroke-linecap="round" stroke-linejoin="round"/>
<path d="M26.6667 16.0001C28.1394 16.0001 29.3333 14.8062 29.3333 13.3334C29.3333 11.8607 28.1394 10.6667 26.6667 10.6667C25.1939 10.6667 24 11.8607 24 13.3334C24 14.8062 25.1939 16.0001 26.6667 16.0001Z" stroke="#227DDE" stroke-width="2" stroke-linecap="round" stroke-linejoin="round"/>
</g>
<defs>
<clipPath id="clip0_0_10">
<rect width="32" height="32" fill="white"/>
</clipPath>
</defs>
</svg>
