<svg width="24" height="24" viewBox="0 0 24 24" fill="none" xmlns="http://www.w3.org/2000/svg">
<mask id="mask0_1409_111" style="mask-type:luminance" maskUnits="userSpaceOnUse" x="1" y="1" width="22" height="22">
<path fill-rule="evenodd" clip-rule="evenodd" d="M1 1.00024H22.493V22.494H1V1.00024Z" fill="white"/>
</mask>
<g mask="url(#mask0_1409_111)">
<path fill-rule="evenodd" clip-rule="evenodd" d="M6.10838 19.6752C6.68838 19.6752 7.23538 19.8952 7.81438 20.1282C11.3614 21.7682 15.5564 21.0222 18.2894 18.2902C21.8954 14.6822 21.8954 8.81324 18.2894 5.20724C16.5434 3.46124 14.2214 2.50024 11.7494 2.50024C9.27638 2.50024 6.95338 3.46224 5.20838 5.20824C2.47438 7.94024 1.73038 12.1352 3.35538 15.6482C3.58938 16.2272 3.81538 16.7912 3.81538 17.3772C3.81538 17.9622 3.61438 18.5512 3.43738 19.0712C3.29138 19.4992 3.07038 20.1452 3.21238 20.2872C3.35138 20.4312 4.00138 20.2042 4.43038 20.0572C4.94538 19.8812 5.52938 19.6792 6.10838 19.6752ZM11.7244 22.4942C10.1964 22.4942 8.65838 22.1712 7.21938 21.5052C6.79538 21.3352 6.39838 21.1752 6.11338 21.1752C5.78538 21.1772 5.34438 21.3292 4.91838 21.4762C4.04438 21.7762 2.95638 22.1502 2.15138 21.3482C1.34938 20.5452 1.71938 19.4602 2.01738 18.5872C2.16438 18.1572 2.31538 17.7132 2.31538 17.3772C2.31538 17.1012 2.18238 16.7492 1.97838 16.2422C0.105376 12.1972 0.971376 7.32224 4.14838 4.14724C6.17638 2.11824 8.87538 1.00024 11.7484 1.00024C14.6214 1.00024 17.3214 2.11724 19.3494 4.14624C23.5414 8.33824 23.5414 15.1582 19.3494 19.3502C17.2944 21.4062 14.5274 22.4942 11.7244 22.4942Z" fill="#227DDE"/>
</g>
<path fill-rule="evenodd" clip-rule="evenodd" d="M15.6963 13.163C15.1443 13.163 14.6923 12.716 14.6923 12.163C14.6923 11.61 15.1353 11.163 15.6873 11.163H15.6963C16.2483 11.163 16.6963 11.61 16.6963 12.163C16.6963 12.716 16.2483 13.163 15.6963 13.163Z" fill="#227DDE"/>
<path fill-rule="evenodd" clip-rule="evenodd" d="M11.6875 13.163C11.1355 13.163 10.6835 12.716 10.6835 12.163C10.6835 11.61 11.1255 11.163 11.6785 11.163H11.6875C12.2395 11.163 12.6875 11.61 12.6875 12.163C12.6875 12.716 12.2395 13.163 11.6875 13.163Z" fill="#227DDE"/>
<path fill-rule="evenodd" clip-rule="evenodd" d="M7.67832 13.163C7.12632 13.163 6.67432 12.716 6.67432 12.163C6.67432 11.61 7.11732 11.163 7.66932 11.163H7.67832C8.23032 11.163 8.67832 11.61 8.67832 12.163C8.67832 12.716 8.23032 13.163 7.67832 13.163Z" fill="#227DDE"/>
</svg>
