<svg width="32" height="32" viewBox="0 0 32 32" fill="none" xmlns="http://www.w3.org/2000/svg">
<path fill-rule="evenodd" clip-rule="evenodd" d="M24.6666 31.3334H7.33329C5.86063 31.3334 4.66663 30.1394 4.66663 28.6667V3.33341C4.66663 1.86075 5.86063 0.666748 7.33329 0.666748H19.982C19.9833 0.666748 19.9853 0.666748 19.9866 0.666748H20C20.2133 0.666748 20.3953 0.774081 20.5173 0.930081L27.07 7.48275C27.2266 7.60475 27.3333 7.78675 27.3333 8.00008V8.01408C27.3333 8.01541 27.3333 8.01608 27.3333 8.01741V28.6667C27.3333 30.1394 26.1393 31.3334 24.6666 31.3334ZM20.6666 2.92075V7.33341H25.0793L20.6666 2.92075ZM26 8.66675H20C19.6313 8.66675 19.3333 8.36808 19.3333 8.00008V2.00008H7.33329C6.59729 2.00008 5.99996 2.59741 5.99996 3.33341V28.6667C5.99996 29.4027 6.59729 30.0001 7.33329 30.0001H24.6666C25.4026 30.0001 26 29.4027 26 28.6667V8.66675ZM22 26.0001H9.99996C9.63129 26.0001 9.33329 25.7021 9.33329 25.3334C9.33329 24.9654 9.63129 24.6667 9.99996 24.6667H22C22.3686 24.6667 22.6666 24.9654 22.6666 25.3334C22.6666 25.7021 22.3686 26.0001 22 26.0001ZM22 20.6667H9.99996C9.63129 20.6667 9.33329 20.3687 9.33329 20.0001C9.33329 19.6321 9.63129 19.3334 9.99996 19.3334H22C22.3686 19.3334 22.6666 19.6321 22.6666 20.0001C22.6666 20.3687 22.3686 20.6667 22 20.6667ZM22 15.3334H9.99996C9.63129 15.3334 9.33329 15.0354 9.33329 14.6667C9.33329 14.2987 9.63129 14.0001 9.99996 14.0001H22C22.3686 14.0001 22.6666 14.2987 22.6666 14.6667C22.6666 15.0354 22.3686 15.3334 22 15.3334Z" fill="#ADADAD"/>
</svg>
